<?xml version="1.0" encoding="utf-8"?>
<!-- Generator: Adobe Illustrator 28.2.0, SVG Export Plug-In . SVG Version: 6.00 Build 0)  -->
<svg version="1.1" id="Layer_1" xmlns="http://www.w3.org/2000/svg" xmlns:xlink="http://www.w3.org/1999/xlink" x="0px" y="0px"
	 viewBox="0 0 1200 1200" style="enable-background:new 0 0 1200 1200;" xml:space="preserve">
<style type="text/css">
	.st0{fill:#FF7F00;}
	.st1{fill:#CE0000;}
	.st2{fill:#1776FF;}
	.st3{fill:#00B56B;}
	.st4{fill:#808080;}
	.st5{font-family:'Arial-Black';}
	.st6{font-size:196px;}
</style>
<path class="st0" d="M570.3,800.3L709,613.4L570.3,426.5H431.6l138.7,186.9L431.6,800.3H570.3z"/>
<path class="st1" d="M518,613.4L397.9,451.5l-49.7-67h315.5h173.6h43.4c-57.4-141.1-221.3-217.7-441.9-216.5
	c127.9,73.6,126,123.1,116.1,161c-169.9-120.6-345.5,8.4-469-202.3C72.7,426.5,299.1,422.5,324.8,490.1
	c-129.5-10.4-167.3,24.1-216.8,83.5c195.2-18,251,80.3,344.6,127.9L518,613.4z"/>
<path class="st2" d="M976,613.4L837.2,800.3h138.7l138.7-186.9L975.9,426.5H837.2L976,613.4z"/>
<path class="st3" d="M634.4,426.5l138.7,186.9L634.4,800.3h138.7l138.7-186.9L773.1,426.5H634.4z"/>
<text transform="matrix(1 0 0 1 68.7168 1005.8867)"><tspan x="0" y="0" class="st4 st5 st6">Turbo</tspan><tspan x="620.7" y="0" class="st1 st5 st6">XML</tspan></text>
</svg>
